<mxfile host="app.diagrams.net" modified="2021-04-07T03:39:56.847Z" agent="5.0 (Windows NT 10.0; Win64; x64) AppleWebKit/537.36 (KHTML, like Gecko) Chrome/88.0.4324.150 Safari/537.36 Edg/88.0.705.63" etag="KjalJ7OKw2BIU1tdcLFv" version="14.5.7" type="github">
  <diagram name="Page-1" id="c7558073-3199-34d8-9f00-42111426c3f3">
    <mxGraphModel dx="2286" dy="1806" grid="1" gridSize="10" guides="1" tooltips="1" connect="1" arrows="1" fold="1" page="1" pageScale="1" pageWidth="826" pageHeight="1169" background="#ffffff" math="0" shadow="0">
      <root>
        <mxCell id="0" />
        <mxCell id="1" parent="0" />
        <mxCell id="SHFTIFkNnXEHKd1YVMf3-4" value="" style="group" vertex="1" connectable="0" parent="1">
          <mxGeometry x="-440" y="210" width="410" height="370" as="geometry" />
        </mxCell>
        <mxCell id="SHFTIFkNnXEHKd1YVMf3-1" value="" style="ellipse;whiteSpace=wrap;html=1;" vertex="1" parent="SHFTIFkNnXEHKd1YVMf3-4">
          <mxGeometry width="390" height="270" as="geometry" />
        </mxCell>
        <mxCell id="SHFTIFkNnXEHKd1YVMf3-3" value="Workspace manager" style="text;html=1;strokeColor=none;fillColor=none;align=center;verticalAlign=middle;whiteSpace=wrap;rounded=0;" vertex="1" parent="SHFTIFkNnXEHKd1YVMf3-4">
          <mxGeometry x="180" y="20" width="120" height="20" as="geometry" />
        </mxCell>
        <mxCell id="SHFTIFkNnXEHKd1YVMf3-12" value="" style="shape=parallelogram;perimeter=parallelogramPerimeter;whiteSpace=wrap;html=1;fixedSize=1;fillColor=#FFCCCC;" vertex="1" parent="SHFTIFkNnXEHKd1YVMf3-4">
          <mxGeometry x="50" y="69" width="50" height="21" as="geometry" />
        </mxCell>
        <mxCell id="SHFTIFkNnXEHKd1YVMf3-14" value="" style="shape=xor;whiteSpace=wrap;html=1;fillColor=#FFFFCC;" vertex="1" parent="SHFTIFkNnXEHKd1YVMf3-4">
          <mxGeometry x="59" y="109" width="17" height="31" as="geometry" />
        </mxCell>
        <mxCell id="SHFTIFkNnXEHKd1YVMf3-19" value="" style="group" vertex="1" connectable="0" parent="SHFTIFkNnXEHKd1YVMf3-4">
          <mxGeometry x="106" y="48.5" width="234" height="217.5" as="geometry" />
        </mxCell>
        <mxCell id="SHFTIFkNnXEHKd1YVMf3-20" value="" style="ellipse;whiteSpace=wrap;html=1;" vertex="1" parent="SHFTIFkNnXEHKd1YVMf3-19">
          <mxGeometry width="225.33333333333334" height="171.5" as="geometry" />
        </mxCell>
        <mxCell id="SHFTIFkNnXEHKd1YVMf3-21" value="Workspace admin" style="text;html=1;strokeColor=none;fillColor=none;align=center;verticalAlign=middle;whiteSpace=wrap;rounded=0;" vertex="1" parent="SHFTIFkNnXEHKd1YVMf3-19">
          <mxGeometry x="56.333333333333336" y="16.37437185929648" width="112.66666666666667" height="17.236180904522612" as="geometry" />
        </mxCell>
        <mxCell id="SHFTIFkNnXEHKd1YVMf3-13" value="" style="shape=tape;whiteSpace=wrap;html=1;fillColor=#FFE6CC;" vertex="1" parent="SHFTIFkNnXEHKd1YVMf3-19">
          <mxGeometry x="23.999999999999986" y="48.5" width="30" height="31" as="geometry" />
        </mxCell>
        <mxCell id="SHFTIFkNnXEHKd1YVMf3-39" value="" style="ellipse;whiteSpace=wrap;html=1;fillColor=#FFFFFF;" vertex="1" parent="SHFTIFkNnXEHKd1YVMf3-19">
          <mxGeometry x="43" y="60" width="167" height="100" as="geometry" />
        </mxCell>
        <mxCell id="SHFTIFkNnXEHKd1YVMf3-18" value="" style="ellipse;whiteSpace=wrap;html=1;aspect=fixed;fillColor=#97D077;" vertex="1" parent="SHFTIFkNnXEHKd1YVMf3-19">
          <mxGeometry x="154" y="91.25" width="35" height="35" as="geometry" />
        </mxCell>
        <mxCell id="SHFTIFkNnXEHKd1YVMf3-16" value="" style="rhombus;whiteSpace=wrap;html=1;fillColor=#CCFFCC;" vertex="1" parent="SHFTIFkNnXEHKd1YVMf3-19">
          <mxGeometry x="64" y="103.25" width="40" height="31" as="geometry" />
        </mxCell>
        <mxCell id="SHFTIFkNnXEHKd1YVMf3-40" value="Development" style="text;html=1;strokeColor=none;fillColor=none;align=center;verticalAlign=middle;whiteSpace=wrap;rounded=0;" vertex="1" parent="SHFTIFkNnXEHKd1YVMf3-19">
          <mxGeometry x="86.5" y="71.25" width="80" height="20" as="geometry" />
        </mxCell>
        <mxCell id="SHFTIFkNnXEHKd1YVMf3-41" value="" style="rhombus;whiteSpace=wrap;html=1;fillColor=#67AB9F;" vertex="1" parent="SHFTIFkNnXEHKd1YVMf3-19">
          <mxGeometry x="69" y="34" width="30" height="26" as="geometry" />
        </mxCell>
        <mxCell id="SHFTIFkNnXEHKd1YVMf3-30" value="" style="shape=or;whiteSpace=wrap;html=1;fillColor=#CCCC00;" vertex="1" parent="SHFTIFkNnXEHKd1YVMf3-4">
          <mxGeometry x="39" y="168.5" width="20" height="30" as="geometry" />
        </mxCell>
        <mxCell id="SHFTIFkNnXEHKd1YVMf3-17" value="" style="shape=trapezoid;perimeter=trapezoidPerimeter;whiteSpace=wrap;html=1;fixedSize=1;fillColor=#CCE5FF;" vertex="1" parent="SHFTIFkNnXEHKd1YVMf3-4">
          <mxGeometry x="220" y="167.5" width="40" height="31" as="geometry" />
        </mxCell>
        <mxCell id="SHFTIFkNnXEHKd1YVMf3-44" value="These permissions are related to data segregation concept and onboard new users" style="text;html=1;strokeColor=none;fillColor=none;align=left;verticalAlign=middle;whiteSpace=wrap;rounded=0;" vertex="1" parent="SHFTIFkNnXEHKd1YVMf3-4">
          <mxGeometry x="39" y="290" width="171" height="60" as="geometry" />
        </mxCell>
        <mxCell id="SHFTIFkNnXEHKd1YVMf3-45" value="" style="curved=1;endArrow=classic;html=1;exitX=0.5;exitY=0;exitDx=0;exitDy=0;entryX=0.205;entryY=0.704;entryDx=0;entryDy=0;entryPerimeter=0;" edge="1" parent="SHFTIFkNnXEHKd1YVMf3-4" source="SHFTIFkNnXEHKd1YVMf3-44" target="SHFTIFkNnXEHKd1YVMf3-1">
          <mxGeometry width="50" height="50" relative="1" as="geometry">
            <mxPoint x="257.5" y="275.03" as="sourcePoint" />
            <mxPoint x="232.42000000000007" y="364.96000000000004" as="targetPoint" />
            <Array as="points">
              <mxPoint x="130" y="240" />
            </Array>
          </mxGeometry>
        </mxCell>
        <mxCell id="SHFTIFkNnXEHKd1YVMf3-36" value="Individual permissions" style="text;html=1;strokeColor=none;fillColor=none;align=center;verticalAlign=middle;whiteSpace=wrap;rounded=0;" vertex="1" parent="SHFTIFkNnXEHKd1YVMf3-4">
          <mxGeometry x="270" y="290" width="130" height="20" as="geometry" />
        </mxCell>
        <mxCell id="SHFTIFkNnXEHKd1YVMf3-37" value="" style="curved=1;endArrow=classic;html=1;exitX=0.5;exitY=0;exitDx=0;exitDy=0;entryX=0.725;entryY=0.815;entryDx=0;entryDy=0;entryPerimeter=0;" edge="1" parent="SHFTIFkNnXEHKd1YVMf3-4" source="SHFTIFkNnXEHKd1YVMf3-36" target="SHFTIFkNnXEHKd1YVMf3-39">
          <mxGeometry width="50" height="50" relative="1" as="geometry">
            <mxPoint x="-84.98000000000002" y="-10" as="sourcePoint" />
            <mxPoint x="350" y="270" as="targetPoint" />
            <Array as="points">
              <mxPoint x="310" y="260" />
            </Array>
          </mxGeometry>
        </mxCell>
        <mxCell id="IdMNI_JNh8bzWSV93UBb-96" value="" style="rounded=1;whiteSpace=wrap;html=1;align=center;" parent="1" vertex="1">
          <mxGeometry x="70" y="20" width="180" height="330" as="geometry" />
        </mxCell>
        <mxCell id="xDphmvwOVZGYUPQbG3uU-7" value="" style="rounded=0;whiteSpace=wrap;html=1;dashed=1;fillColor=#FFCC99;" parent="1" vertex="1">
          <mxGeometry x="85" y="50" width="150" height="70" as="geometry" />
        </mxCell>
        <mxCell id="IdMNI_JNh8bzWSV93UBb-97" value="" style="rounded=1;whiteSpace=wrap;html=1;" parent="1" vertex="1">
          <mxGeometry x="360" y="20" width="190" height="450" as="geometry" />
        </mxCell>
        <mxCell id="xDphmvwOVZGYUPQbG3uU-2" value="" style="rounded=0;whiteSpace=wrap;html=1;dashed=1;fillColor=#FFCC99;" parent="1" vertex="1">
          <mxGeometry x="380" y="51" width="150" height="100" as="geometry" />
        </mxCell>
        <mxCell id="IdMNI_JNh8bzWSV93UBb-100" value="Project owner" style="rounded=0;whiteSpace=wrap;html=1;" parent="1" vertex="1">
          <mxGeometry x="100" y="60" width="120" height="20" as="geometry" />
        </mxCell>
        <mxCell id="IdMNI_JNh8bzWSV93UBb-107" value="Workspace manager" style="rounded=0;whiteSpace=wrap;html=1;" parent="1" vertex="1">
          <mxGeometry x="100" y="90" width="120" height="20" as="geometry" />
        </mxCell>
        <mxCell id="IdMNI_JNh8bzWSV93UBb-108" value="Development" style="rounded=0;whiteSpace=wrap;html=1;" parent="1" vertex="1">
          <mxGeometry x="100" y="130" width="120" height="20" as="geometry" />
        </mxCell>
        <mxCell id="IdMNI_JNh8bzWSV93UBb-110" value="Visitor" style="rounded=0;whiteSpace=wrap;html=1;" parent="1" vertex="1">
          <mxGeometry x="100" y="220" width="120" height="20" as="geometry" />
        </mxCell>
        <mxCell id="IdMNI_JNh8bzWSV93UBb-111" value="Deploy" style="rounded=0;whiteSpace=wrap;html=1;" parent="1" vertex="1">
          <mxGeometry x="100" y="190" width="120" height="20" as="geometry" />
        </mxCell>
        <mxCell id="IdMNI_JNh8bzWSV93UBb-112" value="O&amp;amp;M" style="rounded=0;whiteSpace=wrap;html=1;" parent="1" vertex="1">
          <mxGeometry x="100" y="160" width="120" height="20" as="geometry" />
        </mxCell>
        <mxCell id="IdMNI_JNh8bzWSV93UBb-113" value="DataWorks" style="text;html=1;strokeColor=none;fillColor=none;align=center;verticalAlign=middle;whiteSpace=wrap;rounded=0;" parent="1" vertex="1">
          <mxGeometry x="130" y="20" width="60" height="20" as="geometry" />
        </mxCell>
        <mxCell id="IdMNI_JNh8bzWSV93UBb-115" value="admin" style="rounded=0;whiteSpace=wrap;html=1;" parent="1" vertex="1">
          <mxGeometry x="390" y="121" width="130" height="20" as="geometry" />
        </mxCell>
        <mxCell id="IdMNI_JNh8bzWSV93UBb-116" value="role_project_admin" style="rounded=0;whiteSpace=wrap;html=1;" parent="1" vertex="1">
          <mxGeometry x="390" y="160" width="130" height="20" as="geometry" />
        </mxCell>
        <mxCell id="IdMNI_JNh8bzWSV93UBb-117" value="role_project_deploy" style="rounded=0;whiteSpace=wrap;html=1;" parent="1" vertex="1">
          <mxGeometry x="390" y="400" width="130" height="20" as="geometry" />
        </mxCell>
        <mxCell id="IdMNI_JNh8bzWSV93UBb-118" value="role_project_dev" style="rounded=0;whiteSpace=wrap;html=1;" parent="1" vertex="1">
          <mxGeometry x="390" y="190" width="130" height="20" as="geometry" />
        </mxCell>
        <mxCell id="IdMNI_JNh8bzWSV93UBb-119" value="role_project_erd" style="rounded=0;whiteSpace=wrap;html=1;" parent="1" vertex="1">
          <mxGeometry x="390" y="220" width="130" height="20" as="geometry" />
        </mxCell>
        <mxCell id="IdMNI_JNh8bzWSV93UBb-120" value="role_project_guest" style="rounded=0;whiteSpace=wrap;html=1;" parent="1" vertex="1">
          <mxGeometry x="390" y="250" width="130" height="20" as="geometry" />
        </mxCell>
        <mxCell id="IdMNI_JNh8bzWSV93UBb-121" value="role_project_scheduler" style="rounded=0;whiteSpace=wrap;html=1;" parent="1" vertex="1">
          <mxGeometry x="390" y="310" width="130" height="20" as="geometry" />
        </mxCell>
        <mxCell id="IdMNI_JNh8bzWSV93UBb-122" value="role_project_pe" style="rounded=0;whiteSpace=wrap;html=1;" parent="1" vertex="1">
          <mxGeometry x="390" y="280" width="130" height="20" as="geometry" />
        </mxCell>
        <mxCell id="IdMNI_JNh8bzWSV93UBb-123" value="role_project_security" style="rounded=0;whiteSpace=wrap;html=1;" parent="1" vertex="1">
          <mxGeometry x="390" y="340" width="130" height="20" as="geometry" />
        </mxCell>
        <mxCell id="IdMNI_JNh8bzWSV93UBb-124" value="super_administrator" style="rounded=0;whiteSpace=wrap;html=1;" parent="1" vertex="1">
          <mxGeometry x="390" y="91" width="130" height="20" as="geometry" />
        </mxCell>
        <mxCell id="IdMNI_JNh8bzWSV93UBb-125" value="role_project_test" style="rounded=0;whiteSpace=wrap;html=1;" parent="1" vertex="1">
          <mxGeometry x="390" y="370" width="130" height="20" as="geometry" />
        </mxCell>
        <mxCell id="IdMNI_JNh8bzWSV93UBb-126" value="MaxCompute" style="text;html=1;strokeColor=none;fillColor=none;align=center;verticalAlign=middle;whiteSpace=wrap;rounded=0;" parent="1" vertex="1">
          <mxGeometry x="420" y="20" width="70" height="20" as="geometry" />
        </mxCell>
        <mxCell id="IdMNI_JNh8bzWSV93UBb-127" value="Safety manager" style="rounded=0;whiteSpace=wrap;html=1;" parent="1" vertex="1">
          <mxGeometry x="100" y="250" width="120" height="20" as="geometry" />
        </mxCell>
        <mxCell id="IdMNI_JNh8bzWSV93UBb-128" value="Model developer" style="rounded=0;whiteSpace=wrap;html=1;" parent="1" vertex="1">
          <mxGeometry x="100" y="280" width="120" height="20" as="geometry" />
        </mxCell>
        <mxCell id="IdMNI_JNh8bzWSV93UBb-133" value="" style="endArrow=classic;html=1;exitX=1;exitY=0.5;exitDx=0;exitDy=0;entryX=0;entryY=0.5;entryDx=0;entryDy=0;" parent="1" source="IdMNI_JNh8bzWSV93UBb-127" target="IdMNI_JNh8bzWSV93UBb-123" edge="1">
          <mxGeometry width="50" height="50" relative="1" as="geometry">
            <mxPoint x="500" y="240" as="sourcePoint" />
            <mxPoint x="550" y="190" as="targetPoint" />
          </mxGeometry>
        </mxCell>
        <mxCell id="IdMNI_JNh8bzWSV93UBb-135" value="" style="endArrow=classic;html=1;exitX=1;exitY=0.5;exitDx=0;exitDy=0;entryX=0;entryY=0.5;entryDx=0;entryDy=0;" parent="1" source="IdMNI_JNh8bzWSV93UBb-110" target="IdMNI_JNh8bzWSV93UBb-120" edge="1">
          <mxGeometry width="50" height="50" relative="1" as="geometry">
            <mxPoint x="200" y="410" as="sourcePoint" />
            <mxPoint x="250" y="360" as="targetPoint" />
          </mxGeometry>
        </mxCell>
        <mxCell id="IdMNI_JNh8bzWSV93UBb-136" value="" style="endArrow=classic;html=1;exitX=1;exitY=0.5;exitDx=0;exitDy=0;entryX=0;entryY=0.5;entryDx=0;entryDy=0;" parent="1" source="IdMNI_JNh8bzWSV93UBb-111" target="IdMNI_JNh8bzWSV93UBb-117" edge="1">
          <mxGeometry width="50" height="50" relative="1" as="geometry">
            <mxPoint x="230" y="420" as="sourcePoint" />
            <mxPoint x="280" y="370" as="targetPoint" />
          </mxGeometry>
        </mxCell>
        <mxCell id="IdMNI_JNh8bzWSV93UBb-137" value="" style="endArrow=classic;html=1;exitX=1;exitY=0.5;exitDx=0;exitDy=0;entryX=0;entryY=0.5;entryDx=0;entryDy=0;" parent="1" source="IdMNI_JNh8bzWSV93UBb-112" target="IdMNI_JNh8bzWSV93UBb-122" edge="1">
          <mxGeometry width="50" height="50" relative="1" as="geometry">
            <mxPoint x="200" y="440" as="sourcePoint" />
            <mxPoint x="250" y="390" as="targetPoint" />
          </mxGeometry>
        </mxCell>
        <mxCell id="IdMNI_JNh8bzWSV93UBb-138" value="" style="endArrow=classic;html=1;exitX=1;exitY=0.5;exitDx=0;exitDy=0;entryX=0;entryY=0.5;entryDx=0;entryDy=0;" parent="1" source="IdMNI_JNh8bzWSV93UBb-108" target="IdMNI_JNh8bzWSV93UBb-118" edge="1">
          <mxGeometry width="50" height="50" relative="1" as="geometry">
            <mxPoint x="200" y="440" as="sourcePoint" />
            <mxPoint x="250" y="390" as="targetPoint" />
          </mxGeometry>
        </mxCell>
        <mxCell id="IdMNI_JNh8bzWSV93UBb-139" value="" style="endArrow=classic;html=1;exitX=1;exitY=0.5;exitDx=0;exitDy=0;entryX=0;entryY=0.5;entryDx=0;entryDy=0;" parent="1" source="IdMNI_JNh8bzWSV93UBb-107" target="IdMNI_JNh8bzWSV93UBb-116" edge="1">
          <mxGeometry width="50" height="50" relative="1" as="geometry">
            <mxPoint x="200" y="430" as="sourcePoint" />
            <mxPoint x="250" y="380" as="targetPoint" />
          </mxGeometry>
        </mxCell>
        <mxCell id="IdMNI_JNh8bzWSV93UBb-140" value="" style="endArrow=classic;html=1;exitX=1;exitY=0.5;exitDx=0;exitDy=0;entryX=0;entryY=0.5;entryDx=0;entryDy=0;" parent="1" source="IdMNI_JNh8bzWSV93UBb-128" target="IdMNI_JNh8bzWSV93UBb-119" edge="1">
          <mxGeometry width="50" height="50" relative="1" as="geometry">
            <mxPoint x="190" y="410" as="sourcePoint" />
            <mxPoint x="240" y="360" as="targetPoint" />
          </mxGeometry>
        </mxCell>
        <mxCell id="IdMNI_JNh8bzWSV93UBb-141" value="" style="curved=1;endArrow=classic;html=1;entryX=0.5;entryY=1;entryDx=0;entryDy=0;" parent="1" target="IdMNI_JNh8bzWSV93UBb-142" edge="1">
          <mxGeometry width="50" height="50" relative="1" as="geometry">
            <mxPoint x="310" y="110" as="sourcePoint" />
            <mxPoint x="240" y="20" as="targetPoint" />
            <Array as="points">
              <mxPoint x="310" y="60" />
            </Array>
          </mxGeometry>
        </mxCell>
        <mxCell id="IdMNI_JNh8bzWSV93UBb-144" value="" style="curved=1;endArrow=classic;html=1;exitX=0.5;exitY=0;exitDx=0;exitDy=0;entryX=0.111;entryY=0.4;entryDx=0;entryDy=0;entryPerimeter=0;" parent="1" source="IdMNI_JNh8bzWSV93UBb-143" target="IdMNI_JNh8bzWSV93UBb-96" edge="1">
          <mxGeometry width="50" height="50" relative="1" as="geometry">
            <mxPoint x="-30" y="170" as="sourcePoint" />
            <mxPoint x="40" y="240" as="targetPoint" />
            <Array as="points">
              <mxPoint x="10" y="160" />
            </Array>
          </mxGeometry>
        </mxCell>
        <mxCell id="IdMNI_JNh8bzWSV93UBb-145" value="" style="curved=1;endArrow=classic;html=1;entryX=1;entryY=0.5;entryDx=0;entryDy=0;exitX=0.5;exitY=1;exitDx=0;exitDy=0;" parent="1" source="IdMNI_JNh8bzWSV93UBb-147" target="xDphmvwOVZGYUPQbG3uU-2" edge="1">
          <mxGeometry width="50" height="50" relative="1" as="geometry">
            <mxPoint x="700" y="100" as="sourcePoint" />
            <mxPoint x="650" y="10" as="targetPoint" />
            <Array as="points">
              <mxPoint x="590" y="110" />
            </Array>
          </mxGeometry>
        </mxCell>
        <mxCell id="xDphmvwOVZGYUPQbG3uU-1" value="Project owner" style="rounded=0;whiteSpace=wrap;html=1;" parent="1" vertex="1">
          <mxGeometry x="390" y="61" width="130" height="20" as="geometry" />
        </mxCell>
        <mxCell id="xDphmvwOVZGYUPQbG3uU-6" value="" style="curved=1;endArrow=classic;html=1;exitX=0.5;exitY=1;exitDx=0;exitDy=0;" parent="1" source="xDphmvwOVZGYUPQbG3uU-4" edge="1">
          <mxGeometry width="50" height="50" relative="1" as="geometry">
            <mxPoint x="657.5" y="170" as="sourcePoint" />
            <mxPoint x="530" y="180" as="targetPoint" />
            <Array as="points">
              <mxPoint x="610" y="180" />
            </Array>
          </mxGeometry>
        </mxCell>
        <mxCell id="xDphmvwOVZGYUPQbG3uU-10" value="" style="curved=1;endArrow=classic;html=1;entryX=0;entryY=0.5;entryDx=0;entryDy=0;exitX=0.5;exitY=1;exitDx=0;exitDy=0;" parent="1" source="xDphmvwOVZGYUPQbG3uU-8" target="xDphmvwOVZGYUPQbG3uU-7" edge="1">
          <mxGeometry width="50" height="50" relative="1" as="geometry">
            <mxPoint x="625" y="40" as="sourcePoint" />
            <mxPoint x="540" y="111" as="targetPoint" />
            <Array as="points">
              <mxPoint y="85" />
            </Array>
          </mxGeometry>
        </mxCell>
        <mxCell id="xDphmvwOVZGYUPQbG3uU-11" value="Workspace admin" style="rounded=0;whiteSpace=wrap;html=1;dashed=1;" parent="1" vertex="1">
          <mxGeometry x="100" y="310" width="120" height="20" as="geometry" />
        </mxCell>
        <mxCell id="xDphmvwOVZGYUPQbG3uU-14" value="" style="curved=1;endArrow=classic;html=1;entryX=0.5;entryY=1;entryDx=0;entryDy=0;exitX=0.25;exitY=0;exitDx=0;exitDy=0;" parent="1" source="xDphmvwOVZGYUPQbG3uU-13" target="xDphmvwOVZGYUPQbG3uU-11" edge="1">
          <mxGeometry width="50" height="50" relative="1" as="geometry">
            <mxPoint x="-10" y="450" as="sourcePoint" />
            <mxPoint x="40" y="400" as="targetPoint" />
            <Array as="points">
              <mxPoint x="83" y="360" />
            </Array>
          </mxGeometry>
        </mxCell>
        <mxCell id="xDphmvwOVZGYUPQbG3uU-15" value="" style="curved=1;endArrow=classic;html=1;entryX=0;entryY=0.5;entryDx=0;entryDy=0;exitX=0.25;exitY=0;exitDx=0;exitDy=0;" parent="1" source="xDphmvwOVZGYUPQbG3uU-13" target="xDphmvwOVZGYUPQbG3uU-12" edge="1">
          <mxGeometry width="50" height="50" relative="1" as="geometry">
            <mxPoint x="310" y="530" as="sourcePoint" />
            <mxPoint x="360" y="480" as="targetPoint" />
            <Array as="points">
              <mxPoint x="290" y="380" />
            </Array>
          </mxGeometry>
        </mxCell>
        <mxCell id="SHFTIFkNnXEHKd1YVMf3-5" value="" style="group" vertex="1" connectable="0" parent="1">
          <mxGeometry x="-101" y="10" width="141" height="30" as="geometry" />
        </mxCell>
        <mxCell id="xDphmvwOVZGYUPQbG3uU-8" value="Administrative roles in DataWorks" style="text;html=1;strokeColor=none;fillColor=none;align=left;verticalAlign=middle;whiteSpace=wrap;rounded=0;" parent="SHFTIFkNnXEHKd1YVMf3-5" vertex="1">
          <mxGeometry x="31" width="110" height="30" as="geometry" />
        </mxCell>
        <mxCell id="xDphmvwOVZGYUPQbG3uU-24" value="&lt;font style=&quot;font-size: 18px&quot;&gt;1&lt;/font&gt;" style="ellipse;whiteSpace=wrap;html=1;aspect=fixed;fillColor=#FFCC99;" parent="SHFTIFkNnXEHKd1YVMf3-5" vertex="1">
          <mxGeometry y="0.5" width="29" height="29" as="geometry" />
        </mxCell>
        <mxCell id="SHFTIFkNnXEHKd1YVMf3-6" value="" style="group" vertex="1" connectable="0" parent="1">
          <mxGeometry x="-89" y="200" width="139" height="30" as="geometry" />
        </mxCell>
        <mxCell id="IdMNI_JNh8bzWSV93UBb-143" value="Other built-in&amp;nbsp;roles in&amp;nbsp;DataWorks" style="text;html=1;strokeColor=none;fillColor=none;align=left;verticalAlign=middle;whiteSpace=wrap;rounded=0;" parent="SHFTIFkNnXEHKd1YVMf3-6" vertex="1">
          <mxGeometry x="29" width="110" height="30" as="geometry" />
        </mxCell>
        <mxCell id="xDphmvwOVZGYUPQbG3uU-23" value="&lt;font style=&quot;font-size: 18px&quot;&gt;2&lt;/font&gt;" style="ellipse;whiteSpace=wrap;html=1;aspect=fixed;fillColor=#FFCC99;" parent="SHFTIFkNnXEHKd1YVMf3-6" vertex="1">
          <mxGeometry width="29" height="29" as="geometry" />
        </mxCell>
        <mxCell id="SHFTIFkNnXEHKd1YVMf3-7" value="" style="group" vertex="1" connectable="0" parent="1">
          <mxGeometry x="141" y="-70" width="189" height="70" as="geometry" />
        </mxCell>
        <mxCell id="IdMNI_JNh8bzWSV93UBb-142" value="If you assign a DataWorks role to a user, this user will be automatically assigned an associated MaxCompute role as well" style="text;html=1;strokeColor=none;fillColor=none;align=left;verticalAlign=middle;whiteSpace=wrap;rounded=0;" parent="SHFTIFkNnXEHKd1YVMf3-7" vertex="1">
          <mxGeometry x="29" width="160" height="70" as="geometry" />
        </mxCell>
        <mxCell id="xDphmvwOVZGYUPQbG3uU-20" value="&lt;font style=&quot;font-size: 18px&quot;&gt;5&lt;/font&gt;" style="ellipse;whiteSpace=wrap;html=1;aspect=fixed;fillColor=#FFCC99;" parent="SHFTIFkNnXEHKd1YVMf3-7" vertex="1">
          <mxGeometry width="29" height="29" as="geometry" />
        </mxCell>
        <mxCell id="SHFTIFkNnXEHKd1YVMf3-8" value="" style="group" vertex="1" connectable="0" parent="1">
          <mxGeometry x="560" width="139" height="30" as="geometry" />
        </mxCell>
        <mxCell id="IdMNI_JNh8bzWSV93UBb-147" value="Administrative roles in MaxCompute" style="text;html=1;strokeColor=none;fillColor=none;align=left;verticalAlign=middle;whiteSpace=wrap;rounded=0;" parent="SHFTIFkNnXEHKd1YVMf3-8" vertex="1">
          <mxGeometry width="110" height="30" as="geometry" />
        </mxCell>
        <mxCell id="xDphmvwOVZGYUPQbG3uU-22" value="&lt;font style=&quot;font-size: 18px&quot;&gt;3&lt;/font&gt;" style="ellipse;whiteSpace=wrap;html=1;aspect=fixed;fillColor=#FFCC99;" parent="SHFTIFkNnXEHKd1YVMf3-8" vertex="1">
          <mxGeometry x="110" width="29" height="29" as="geometry" />
        </mxCell>
        <mxCell id="SHFTIFkNnXEHKd1YVMf3-9" value="" style="group" vertex="1" connectable="0" parent="1">
          <mxGeometry x="570" y="110" width="129" height="40" as="geometry" />
        </mxCell>
        <mxCell id="xDphmvwOVZGYUPQbG3uU-4" value="&lt;span&gt;Other built-in roles in MaxCompute&lt;/span&gt;" style="text;html=1;strokeColor=none;fillColor=none;align=left;verticalAlign=middle;whiteSpace=wrap;rounded=0;dashed=1;" parent="SHFTIFkNnXEHKd1YVMf3-9" vertex="1">
          <mxGeometry width="110" height="40" as="geometry" />
        </mxCell>
        <mxCell id="xDphmvwOVZGYUPQbG3uU-21" value="&lt;font style=&quot;font-size: 18px&quot;&gt;4&lt;/font&gt;" style="ellipse;whiteSpace=wrap;html=1;aspect=fixed;fillColor=#FFCC99;" parent="SHFTIFkNnXEHKd1YVMf3-9" vertex="1">
          <mxGeometry x="100" y="6.5" width="29" height="29" as="geometry" />
        </mxCell>
        <mxCell id="SHFTIFkNnXEHKd1YVMf3-10" value="" style="group" vertex="1" connectable="0" parent="1">
          <mxGeometry x="-9" y="390" width="199" height="170" as="geometry" />
        </mxCell>
        <mxCell id="xDphmvwOVZGYUPQbG3uU-13" value="&lt;div style=&quot;text-align: left&quot;&gt;&lt;span&gt;Plan A&lt;/span&gt;&lt;/div&gt;&lt;div style=&quot;text-align: left&quot;&gt;&lt;span&gt;&lt;br&gt;&lt;/span&gt;&lt;/div&gt;&lt;div style=&quot;text-align: left&quot;&gt;&lt;span&gt;Alibaba creates:&lt;/span&gt;&lt;/div&gt;&lt;div style=&quot;text-align: left&quot;&gt;&lt;span&gt;&lt;br&gt;&lt;/span&gt;&lt;/div&gt;&lt;div style=&quot;text-align: left&quot;&gt;&lt;span&gt;1. A new DataWorks role, and&lt;/span&gt;&lt;br&gt;&lt;span&gt;2. A new MaxCompute role&lt;/span&gt;&lt;/div&gt;&lt;div style=&quot;text-align: left&quot;&gt;&lt;span&gt;&lt;br&gt;&lt;/span&gt;&lt;/div&gt;&lt;div style=&quot;text-align: left&quot;&gt;&lt;span&gt;Or&lt;/span&gt;&lt;/div&gt;&lt;div style=&quot;text-align: left&quot;&gt;&lt;span&gt;&lt;br&gt;&lt;/span&gt;&lt;/div&gt;&lt;div style=&quot;text-align: left&quot;&gt;Alibaba allows us to create customized DataWorks roles and MaxCompute roles&lt;/div&gt;" style="text;html=1;strokeColor=none;fillColor=none;align=center;verticalAlign=middle;whiteSpace=wrap;rounded=0;dashed=1;" parent="SHFTIFkNnXEHKd1YVMf3-10" vertex="1">
          <mxGeometry x="29" width="170" height="170" as="geometry" />
        </mxCell>
        <mxCell id="xDphmvwOVZGYUPQbG3uU-19" value="&lt;font style=&quot;font-size: 18px&quot;&gt;6&lt;/font&gt;" style="ellipse;whiteSpace=wrap;html=1;aspect=fixed;fillColor=#FFCC99;" parent="SHFTIFkNnXEHKd1YVMf3-10" vertex="1">
          <mxGeometry width="29" height="29" as="geometry" />
        </mxCell>
        <mxCell id="SHFTIFkNnXEHKd1YVMf3-11" value="" style="group" vertex="1" connectable="0" parent="1">
          <mxGeometry x="211" y="430" width="489" height="150" as="geometry" />
        </mxCell>
        <mxCell id="xDphmvwOVZGYUPQbG3uU-12" value="Project manager" style="rounded=0;whiteSpace=wrap;html=1;dashed=1;" parent="SHFTIFkNnXEHKd1YVMf3-11" vertex="1">
          <mxGeometry x="179" width="130" height="20" as="geometry" />
        </mxCell>
        <mxCell id="xDphmvwOVZGYUPQbG3uU-27" value="Plan B&lt;br&gt;&lt;br&gt;Swiss Re to leverage the existing DW roles and MC roles to fulfill the requirements -&amp;nbsp;use the combination of:&lt;br&gt;&lt;br&gt;1. &lt;b&gt;DW workspace manager role&lt;/b&gt; (with NO AliyunDataWorksFullAccess policy), and&amp;nbsp;&lt;br&gt;2. &lt;b&gt;MC admin role&lt;/b&gt;.&lt;br&gt;&lt;br&gt;This approach is not ideal but can, to some extent, fulfill our requirements.&amp;nbsp;" style="text;html=1;strokeColor=none;fillColor=none;align=left;verticalAlign=middle;whiteSpace=wrap;rounded=0;" parent="SHFTIFkNnXEHKd1YVMf3-11" vertex="1">
          <mxGeometry x="29" y="40" width="460" height="110" as="geometry" />
        </mxCell>
        <mxCell id="xDphmvwOVZGYUPQbG3uU-28" value="&lt;font style=&quot;font-size: 18px&quot;&gt;7&lt;/font&gt;" style="ellipse;whiteSpace=wrap;html=1;aspect=fixed;fillColor=#FFCC99;" parent="SHFTIFkNnXEHKd1YVMf3-11" vertex="1">
          <mxGeometry y="30" width="29" height="29" as="geometry" />
        </mxCell>
        <mxCell id="SHFTIFkNnXEHKd1YVMf3-35" value="" style="curved=1;endArrow=classic;html=1;entryX=0;entryY=0.5;entryDx=0;entryDy=0;exitX=1;exitY=0;exitDx=0;exitDy=0;" edge="1" parent="1" source="SHFTIFkNnXEHKd1YVMf3-20" target="xDphmvwOVZGYUPQbG3uU-11">
          <mxGeometry width="50" height="50" relative="1" as="geometry">
            <mxPoint x="72.5" y="400" as="sourcePoint" />
            <mxPoint x="170" y="340" as="targetPoint" />
            <Array as="points">
              <mxPoint x="-40" y="270" />
            </Array>
          </mxGeometry>
        </mxCell>
        <mxCell id="SHFTIFkNnXEHKd1YVMf3-42" value="Workspace admin role has additional permissions that the development role doesn&#39;t have, such as &#39;New data source&#39;, &#39;Enable scheduling&#39;, etc. These permissions are critical for the management of the individual project.&lt;br&gt;&lt;br&gt;However, the workspace admin should not have any permissions that can onboard new users or&lt;br&gt;might break the data segregation concept." style="text;html=1;strokeColor=none;fillColor=none;align=left;verticalAlign=middle;whiteSpace=wrap;rounded=0;" vertex="1" parent="1">
          <mxGeometry x="-390" y="70" width="260" height="130" as="geometry" />
        </mxCell>
        <mxCell id="SHFTIFkNnXEHKd1YVMf3-43" value="" style="curved=1;endArrow=classic;html=1;exitX=0.25;exitY=1;exitDx=0;exitDy=0;entryX=0.195;entryY=0.242;entryDx=0;entryDy=0;entryPerimeter=0;" edge="1" parent="1" source="SHFTIFkNnXEHKd1YVMf3-42" target="SHFTIFkNnXEHKd1YVMf3-20">
          <mxGeometry width="50" height="50" relative="1" as="geometry">
            <mxPoint x="-182.5" y="220" as="sourcePoint" />
            <mxPoint x="-207.57999999999993" y="319.93000000000006" as="targetPoint" />
            <Array as="points">
              <mxPoint x="-330" y="260" />
            </Array>
          </mxGeometry>
        </mxCell>
      </root>
    </mxGraphModel>
  </diagram>
</mxfile>
